<svg width="100" height="100" viewBox="0 0 100 100" fill="none" xmlns="http://www.w3.org/2000/svg">
<circle cx="50" cy="50" r="50" fill="#990E08"/>
<path d="M27 69.2442V63.429C27 59.4735 28.6037 55.8789 31.1868 53.2736C33.7699 50.6682 37.3338 49.0507 41.2543 49.0507C45.1747 49.0507 48.74 50.6682 51.3217 53.2736C53.1488 55.1163 54.4861 57.4558 55.1118 60.0653C55.4253 59.6162 55.7776 59.1964 56.1619 58.8088C57.8752 57.0808 60.2391 56.0076 62.8403 56.0076C65.4414 56.0076 67.8053 57.0808 69.5186 58.8088C71.2319 60.5369 72.2959 62.9211 72.2959 65.5446V69.2442C72.2959 69.836 71.8201 70.3146 71.2347 70.3146H54.4486H28.0627C27.4758 70.3146 27.0014 69.8346 27.0014 69.2442H27ZM62.8417 44.0863C61.6181 44.0863 60.5096 44.5858 59.7078 45.3946C58.906 46.2033 58.4107 47.3213 58.4107 48.5554C58.4107 49.7895 58.906 50.9075 59.7078 51.7162C60.5096 52.525 61.6167 53.0245 62.8417 53.0245C64.0652 53.0245 65.1737 52.525 65.9755 51.7162C66.7774 50.9075 67.274 49.7895 67.274 48.5554C67.274 47.3213 66.7774 46.2033 65.9755 45.3946C65.1737 44.5858 64.0666 44.0863 62.8417 44.0863ZM58.2068 43.882C59.3929 42.6857 61.0326 41.9455 62.8417 41.9455C64.6521 41.9455 66.2904 42.6857 67.4765 43.882C68.6627 45.0784 69.3965 46.7308 69.3965 48.5568C69.3965 50.3828 68.6627 52.0353 67.4765 53.2316C66.2904 54.4279 64.6521 55.1681 62.8417 55.1681C61.0326 55.1681 59.3929 54.4279 58.2068 53.2316C57.0206 52.0353 56.2868 50.3828 56.2868 48.5568C56.2868 46.7322 57.0206 45.0784 58.2068 43.882ZM55.5099 65.5446V68.1738H70.172V65.5446C70.172 63.5116 69.348 61.6632 68.0176 60.3228C66.6886 58.9823 64.856 58.1498 62.8403 58.1498C60.8259 58.1498 58.992 58.9823 57.663 60.3228C56.3339 61.6632 55.5085 63.5116 55.5085 65.5446H55.5099ZM41.2543 26.9446C43.9317 26.9446 46.3567 28.0388 48.1102 29.8088C49.8651 31.5788 50.9499 34.0232 50.9499 36.7237C50.9499 39.4242 49.8651 41.8686 48.1102 43.6386C46.3553 45.4086 43.9317 46.5028 41.2543 46.5028C38.5768 46.5028 36.1532 45.4086 34.3983 43.6386C32.6434 41.8686 31.5586 39.4242 31.5586 36.7237C31.5586 34.0232 32.6434 31.5774 34.3983 29.8088C36.1532 28.0388 38.5768 26.9446 41.2543 26.9446ZM46.6091 31.3227C45.2399 29.9403 43.3463 29.0854 41.2543 29.0854C39.1636 29.0854 37.27 29.9403 35.8994 31.3227C34.5287 32.7051 33.6811 34.6151 33.6811 36.7237C33.6811 38.8323 34.5287 40.7422 35.8994 42.1246C37.27 43.5071 39.1636 44.362 41.2543 44.362C43.3449 44.362 45.2385 43.5071 46.6091 42.1246C47.9798 40.7436 48.8274 38.8337 48.8274 36.7237C48.8274 34.6137 47.9798 32.7051 46.6091 31.3227ZM29.1225 63.429V68.1738H53.386V65.5446V63.429C53.386 60.0653 52.0209 57.0053 49.8221 54.7875C47.6232 52.5697 44.5893 51.1915 41.2543 51.1915C37.9192 51.1915 34.8867 52.5684 32.6864 54.7875C30.4876 57.0053 29.1225 60.0639 29.1225 63.429Z" fill="white"/>
</svg>
