<svg width="100" height="100" viewBox="0 0 100 100" fill="none" xmlns="http://www.w3.org/2000/svg">
<circle cx="50" cy="50" r="50" fill="#990E08"/>
<path d="M50.2467 46.8681V45.3722H50.9883C51.3591 45.3722 51.6557 45.0731 51.7299 44.7739L51.804 44.4747C52.0265 43.1284 52.8422 41.8569 54.1029 40.9594C56.3275 39.3888 57.6623 36.9206 57.6623 34.1531C57.6623 31.8345 56.6983 29.5907 54.9186 28.0203C53.213 26.4496 50.84 25.7016 48.541 26.0008C44.759 26.4496 41.7927 29.5161 41.348 33.2557C41.0514 36.3222 42.3862 39.2391 44.8334 40.9595C46.094 41.857 46.9097 43.0537 47.1322 44.4748L47.2064 44.774C47.2805 45.148 47.5771 45.3723 47.9479 45.3723H48.6895V46.8682C41.7931 47.0926 35.6381 50.6827 31.8561 55.9928C31.7819 56.0676 31.7077 56.1424 31.6336 56.2919C29.4089 59.8073 28 63.9958 28 68.5581C28 69.0068 28.2966 69.306 28.7416 69.306H70.2686C70.7135 69.306 71.0101 69.0068 71.0101 68.5581C71.0101 56.8156 61.741 47.3166 50.2467 46.8681ZM45.7233 39.6879C43.6469 38.2668 42.6088 35.8735 42.8312 33.4053C43.1278 30.3388 45.6491 27.7957 48.6896 27.4965C50.6176 27.2721 52.4716 27.8705 53.8807 29.1419C55.2899 30.4134 56.1054 32.2833 56.1054 34.1532C56.1054 36.397 54.993 38.4164 53.2133 39.6877C51.7302 40.7348 50.692 42.2307 50.3212 43.8761H48.6156C48.2448 42.2307 47.2806 40.7351 45.7233 39.6879ZM49.5052 51.3557C49.9502 51.3557 50.2468 51.0565 50.2468 50.6078V48.364C55.1408 48.5136 59.5161 50.4582 62.9275 53.5998H56.5499C55.1409 53.5998 53.9544 54.7965 53.9544 56.2176C53.9544 57.6387 55.1409 58.8354 56.5499 58.8354H57.2914C57.8847 58.8354 58.4038 59.3589 58.4038 59.9573V60.7052C58.4038 61.3036 57.8847 61.8271 57.2914 61.8271H38.7528C38.1596 61.8271 37.6405 61.3036 37.6405 60.7052V59.9573C37.6405 59.3589 38.1596 58.8354 38.7528 58.8354H41.719C43.128 58.8354 44.3145 57.6387 44.3145 56.2176C44.3145 54.7965 43.128 53.5998 41.719 53.5998C41.1258 53.5998 40.6067 53.0762 40.6067 52.4778V50.608V50.4584C43.0538 49.187 45.8718 48.439 48.764 48.3642V50.608C48.764 51.0568 49.0603 51.3557 49.5052 51.3557ZM39.1235 51.2809V52.4776C39.1235 53.8987 40.31 55.0954 41.7189 55.0954C42.3122 55.0954 42.8313 55.619 42.8313 56.2173C42.8313 56.8157 42.3122 57.3393 41.7189 57.3393H38.7527C37.3437 57.3393 36.1573 58.536 36.1573 59.9571V60.705C36.1573 62.1261 37.3437 63.3228 38.7527 63.3228H57.2913C58.7003 63.3228 59.8868 62.1261 59.8868 60.705V59.9571C59.8868 58.536 58.7003 57.3393 57.2913 57.3393H56.5498C55.9565 57.3393 55.4374 56.8157 55.4374 56.2173C55.4374 55.619 55.9565 55.0954 56.5498 55.0954H64.336H64.4101C65.5966 56.4417 66.6348 57.9376 67.4505 59.583H65.4483C63.5944 59.583 62.1113 61.0789 62.1113 62.9487C62.1113 63.9958 61.2956 64.8185 60.2574 64.8185H55.8081C54.1025 64.8185 52.6936 66.1648 52.5453 67.8103H39.0488C38.7521 65.716 36.9724 64.0706 34.8219 64.0706C33.9321 64.0706 33.1905 63.3227 33.1905 62.4251V56.8907C34.7477 54.6469 36.8241 52.7022 39.1229 51.281L39.1235 51.2809ZM31.7079 59.284V62.3505C31.7079 64.0707 33.1169 65.5666 34.8966 65.5666C36.2314 65.5666 37.3437 66.5389 37.6404 67.8104H29.483C29.6313 64.7439 30.3731 61.9014 31.7079 59.284ZM54.0286 67.8102C54.1769 66.9874 54.9185 66.3143 55.8083 66.3143H60.2577C62.1115 66.3143 63.5946 64.8184 63.5946 62.9486C63.5946 61.9015 64.4104 61.0788 65.4485 61.0788H68.0439H68.1181C68.9338 63.173 69.4529 65.4168 69.5271 67.81L54.0286 67.8102Z" fill="white"/>
</svg>
