<svg width="42" height="43" viewBox="0 0 42 43" fill="none" xmlns="http://www.w3.org/2000/svg">
<path d="M25.3192 40.6717V28.7457H28.8834H29.9565L30.119 27.685L31.0558 21.5696L31.2763 20.1303H29.8202H25.2932V17.4171V17.3588L25.2878 17.3008C25.2626 17.0312 25.2977 16.7597 25.3904 16.5065L25.3906 16.506C25.4831 16.2529 25.6305 16.0249 25.8213 15.8384C26.012 15.6519 26.2412 15.5118 26.4915 15.4275L26.4917 15.4274C26.7416 15.3433 27.0072 15.3169 27.2683 15.3501L27.3469 15.3601H27.4261H30.0284H31.2784V14.1101V8.86082V7.80282L30.2349 7.628C28.643 7.3613 27.0333 7.21536 25.4199 7.19146C24.1717 7.11275 22.9214 7.30884 21.7561 7.76594C20.5801 8.22719 19.5199 8.94281 18.6497 9.86152C17.7795 10.7802 17.1204 11.8796 16.7183 13.0818C16.3237 14.2613 16.186 15.512 16.3136 16.749V20.0778H12.3591H11.1091V21.3278V27.4432V28.6932H12.3591H16.3136V40.8028C13.1809 40.0551 10.2706 38.5365 7.84782 36.372C5.05557 33.8776 3.02694 30.6294 2.00231 27.0089C0.977654 23.3882 1.00014 19.5475 2.06704 15.9394C3.13395 12.3314 5.20042 9.10744 8.02157 6.64654L8.02158 6.64653C10.8426 4.1857 14.3009 2.59019 17.9887 2.04637C21.6766 1.50258 25.442 2.03287 28.8421 3.57544C32.242 5.11804 35.1356 7.60917 37.1813 10.757C39.2263 13.9038 40.338 17.5753 40.3845 21.3394C40.4116 26.0639 38.7596 30.6404 35.7299 34.2394C33.0192 37.4596 29.3666 39.7062 25.3192 40.6717Z" fill="white" stroke="white" stroke-width="2.5"/>
</svg>
