<svg width="46" height="47" viewBox="0 0 46 47" fill="none" xmlns="http://www.w3.org/2000/svg">
<path fill-rule="evenodd" clip-rule="evenodd" d="M32.1919 2.58887H14.4576C7.92804 2.58887 2.63477 7.92768 2.63477 14.5135V32.4003C2.63477 38.986 7.92804 44.3249 14.4576 44.3249H32.1919C38.7214 44.3249 44.0148 38.986 44.0148 32.4003V14.5135C44.0148 7.92768 38.7214 2.58887 32.1919 2.58887Z" stroke="white" stroke-width="3.6" stroke-linecap="round" stroke-linejoin="round"/>
<path fill-rule="evenodd" clip-rule="evenodd" d="M23.3242 32.4005C18.4269 32.4005 14.457 28.3966 14.457 23.4571C14.457 18.5176 18.4269 14.5137 23.3242 14.5137C28.2215 14.5137 32.1913 18.5176 32.1913 23.4571C32.1913 25.8289 31.257 28.1038 29.5941 29.781C27.9312 31.4582 25.6757 32.4005 23.3242 32.4005Z" stroke="white" stroke-width="3.6" stroke-linecap="round" stroke-linejoin="round"/>
<path d="M35.1478 10.0414C34.3316 10.0414 33.6699 10.7088 33.6699 11.5322C33.6699 12.3555 34.3316 13.0229 35.1478 13.0229C35.964 13.0229 36.6256 12.3555 36.6256 11.5322C36.6256 10.7088 35.964 10.0414 35.1478 10.0414Z" stroke="white" stroke-width="2.4" stroke-linecap="round"/>
</svg>
