<svg width="42" height="43" viewBox="0 0 42 43" fill="none" xmlns="http://www.w3.org/2000/svg">
<path d="M28.1674 14.4404C26.55 14.4404 24.8508 14.6763 23.3554 15.597C23.2795 15.4782 23.1836 15.3612 23.0621 15.2555C22.7677 14.9996 22.402 14.8795 22.016 14.8795H16.7354C16.2468 14.8795 15.8353 15.1428 15.5811 15.3988C15.3089 15.6729 15.0523 16.1013 15.0523 16.6312V35.3573L15.0503 35.3593V35.7456C15.0503 36.2631 15.3259 36.6856 15.562 36.9362C15.782 37.1697 16.1992 37.4972 16.7334 37.4972H22.1393C22.6182 37.4972 23.0549 37.2966 23.3691 37.0106C23.6846 36.7233 23.9476 36.282 23.9476 35.7456V25.3421C23.9476 24.1688 24.1197 23.3396 24.4709 22.8193C24.7691 22.3773 25.2931 22.0184 26.4278 22.0184C27.3798 22.0184 27.7234 22.2503 27.8812 22.4456C28.0793 22.6906 28.224 23.1593 28.224 24.0888V35.7456C28.224 36.1736 28.3927 36.5871 28.654 36.8972C28.9224 37.2159 29.3542 37.4972 29.9071 37.4972H35.3746C35.8717 37.4972 36.2921 37.2546 36.5694 36.9599C36.8529 36.6588 37.0576 36.2319 37.0576 35.7456V22.8355C37.0576 20.0715 36.2157 17.9208 34.5824 16.477C32.9693 15.0509 30.7254 14.4404 28.1674 14.4404ZM1.33203 37.061V5.85275C1.33203 4.69012 1.89242 3.54206 2.61272 2.81539C3.39949 2.02369 4.35065 1.52637 5.6135 1.52637H36.5556C38.9509 1.52637 40.837 3.41716 40.837 5.85275V37.061C40.837 38.3433 40.342 39.3057 39.5568 40.0979C38.8351 40.8241 37.6998 41.3874 36.5556 41.3874H5.6135C3.21819 41.3874 1.33203 39.4966 1.33203 37.061ZM9.59185 5.29024C7.03824 5.29024 5.04978 7.51358 5.04978 9.98765C5.04978 12.5548 7.06805 14.6229 9.59185 14.6229C12.1466 14.6229 14.2572 12.5856 14.2572 9.98765C14.2572 7.48227 12.1769 5.29024 9.59185 5.29024ZM5.17305 16.6312V35.7436C5.17305 36.2176 5.3929 36.6342 5.64339 36.9151C5.88984 37.1916 6.31103 37.4952 6.85612 37.4952H12.262C13.2192 37.4952 14.0067 36.6944 14.0067 35.7436V16.6312C14.0067 16.1855 13.8651 15.7264 13.5177 15.376C13.1695 15.0248 12.7102 14.8795 12.262 14.8795H6.85612C6.36756 14.8795 5.95608 15.1428 5.70184 15.3988C5.42963 15.6729 5.17305 16.1013 5.17305 16.6312Z" fill="white" stroke="white" stroke-width="1.875"/>
</svg>
