<svg width="17" height="17" viewBox="0 0 17 17" fill="none" xmlns="http://www.w3.org/2000/svg">
<path d="M11.7261 10.7843L11.3007 11.2321C11.3007 11.2321 10.2897 12.2965 7.53004 9.3911C4.77042 6.48567 5.78143 5.42129 5.78143 5.42129L6.04928 5.1393C6.70912 4.4446 6.77133 3.32929 6.19564 2.51506L5.01803 0.849475C4.30549 -0.158294 2.92864 -0.29142 2.11194 0.568403L0.646109 2.11165C0.241156 2.53799 -0.030213 3.09066 0.00269726 3.70375C0.0868874 5.27223 0.757111 8.64688 4.49701 12.5843C8.46299 16.7598 12.1843 16.9257 13.706 16.7755C14.1874 16.728 14.6059 16.4685 14.9433 16.1133L16.2699 14.7166C17.1654 13.7738 16.9129 12.1576 15.7671 11.498L13.9829 10.471C13.2306 10.038 12.3141 10.1652 11.7261 10.7843Z" fill="white"/>
</svg>
