<svg width="100" height="100" viewBox="0 0 100 100" fill="none" xmlns="http://www.w3.org/2000/svg">
<circle cx="50" cy="50" r="50" fill="#990E08"/>
<path d="M25.5095 42.8624H32.7754V26.7298C32.7758 26.5194 32.8588 26.3177 33.0063 26.1689C33.1538 26.0201 33.3538 25.9364 33.5625 25.936H65.7742C65.9828 25.9364 66.1828 26.0201 66.3303 26.1689C66.4779 26.3177 66.5609 26.5194 66.5612 26.7298V42.8624H73.8271C73.9305 42.8622 74.033 42.8826 74.1286 42.9225C74.2242 42.9623 74.311 43.0207 74.3842 43.0945C74.4574 43.1682 74.5154 43.2558 74.555 43.3522C74.5945 43.4485 74.6148 43.5519 74.6147 43.6562V59.785H77.5496C77.7582 59.7855 77.9581 59.8693 78.1056 60.018C78.2531 60.1668 78.3361 60.3684 78.3366 60.5788V64.1214C78.3367 64.2257 78.3164 64.3289 78.2769 64.4253C78.2374 64.5216 78.1794 64.6092 78.1063 64.6829C78.0332 64.7566 77.9464 64.8151 77.8509 64.8549C77.7554 64.8948 77.653 64.9153 77.5496 64.9152H74.678V68.5122C74.6776 68.7227 74.5946 68.9244 74.4471 69.0732C74.2996 69.2219 74.0996 69.3057 73.8909 69.306H68.7475C68.5389 69.3055 68.339 69.2217 68.1915 69.073C68.044 68.9242 67.961 68.7226 67.9605 68.5122V64.9146H31.3731V68.5116C31.3731 68.7221 31.2902 68.924 31.1426 69.0729C30.995 69.2218 30.7948 69.3054 30.5861 69.3054H25.4457C25.2371 69.3051 25.0371 69.2213 24.8896 69.0725C24.742 68.9237 24.659 68.722 24.6587 68.5116V64.9146H21.787C21.6836 64.9147 21.5813 64.8942 21.4857 64.8543C21.3902 64.8145 21.3034 64.756 21.2303 64.6823C21.1572 64.6085 21.0993 64.521 21.0597 64.4247C21.0202 64.3283 20.9999 64.2251 21 64.1208V60.5788C21.0005 60.3684 21.0836 60.1668 21.2311 60.018C21.3785 59.8693 21.5784 59.7855 21.787 59.785H24.7219V43.6562C24.7218 43.5519 24.7421 43.4485 24.7817 43.3522C24.8212 43.2558 24.8793 43.1682 24.9524 43.0945C25.0256 43.0207 25.1125 42.9623 25.2081 42.9225C25.3036 42.8826 25.4061 42.8622 25.5095 42.8624ZM73.1021 64.9146H69.5326V67.7178H73.1021V64.9146ZM29.8003 64.9146H26.2327V67.7178H29.8021L29.8003 64.9146ZM73.8271 61.3713H22.574V63.3258H76.7626V61.3713H73.8271ZM26.2965 59.7837H40.8284V44.4499H37.5074V52.1159C37.5074 52.2201 37.4871 52.3234 37.4475 52.4197C37.408 52.516 37.35 52.6035 37.2769 52.6772C37.2038 52.7509 37.1171 52.8094 37.0216 52.8493C36.9261 52.8892 36.8238 52.9097 36.7204 52.9097H30.4045C30.3011 52.9098 30.1987 52.8893 30.1031 52.8494C30.0076 52.8096 29.9207 52.7511 29.8476 52.6774C29.7744 52.6037 29.7164 52.5162 29.6768 52.4198C29.6372 52.3235 29.6169 52.2202 29.6169 52.1159V44.4499H26.2965V59.7837ZM42.4024 59.7837H56.9342V44.4499H53.6133V52.1159C53.6134 52.2202 53.5931 52.3234 53.5536 52.4198C53.514 52.5161 53.4561 52.6037 53.383 52.6774C53.3099 52.7511 53.2231 52.8096 53.1276 52.8494C53.032 52.8893 52.9297 52.9098 52.8263 52.9097H46.5079C46.4045 52.9098 46.3021 52.8893 46.2066 52.8494C46.1111 52.8096 46.0243 52.7511 45.9512 52.6774C45.8781 52.6037 45.8201 52.5161 45.7806 52.4198C45.7411 52.3234 45.7208 52.2202 45.7209 52.1159V44.4499H42.4024V59.7837ZM58.5083 59.7837H73.0401V44.4499H69.7161V52.1159C69.7165 52.22 69.6965 52.3231 69.6573 52.4194C69.6181 52.5157 69.5604 52.6033 69.4876 52.677C69.4147 52.7508 69.3282 52.8093 69.2329 52.8492C69.1375 52.8891 69.0354 52.9097 68.9322 52.9097H62.6162C62.5129 52.9097 62.4105 52.8892 62.315 52.8493C62.2196 52.8094 62.1328 52.7509 62.0597 52.6772C61.9866 52.6035 61.9287 52.516 61.8891 52.4197C61.8496 52.3234 61.8292 52.2201 61.8292 52.1159V44.4499H58.5083V59.7837ZM61.6687 27.5224V35.1933C61.6682 35.4038 61.5851 35.6055 61.4374 35.7543C61.2898 35.903 61.0898 35.9868 60.8811 35.9871H54.5639C54.3553 35.9866 54.1554 35.9028 54.0079 35.754C53.8605 35.6053 53.7774 35.4037 53.7769 35.1933V27.5236H50.4553V42.8624H64.9872V27.5236L61.6687 27.5224ZM55.3522 27.5224V34.3976H60.0941V27.5224H55.3522ZM65.7804 44.4499H63.4032V51.3252H68.1451V44.4499H65.7804ZM52.0424 44.4499H47.2974V51.3252H52.0393L52.0424 44.4499ZM39.2444 27.5236V34.3989H43.9863V27.5236H39.2444ZM45.5604 27.5236V35.1933C45.5599 35.4037 45.4768 35.6053 45.3293 35.754C45.1818 35.9028 44.9819 35.9866 44.7734 35.9871H38.4574C38.2487 35.9868 38.0487 35.903 37.9011 35.7543C37.7534 35.6055 37.6703 35.4038 37.6698 35.1933V27.5236H34.3495V42.8624H48.8813V27.5236H45.5604ZM35.9334 44.4499H31.1915V51.3252H35.9334V44.4499Z" fill="white"/>
</svg>
