<svg width="100" height="100" viewBox="0 0 100 100" fill="none" xmlns="http://www.w3.org/2000/svg">
<circle cx="50" cy="50" r="50" fill="#990E08"/>
<path d="M70.2002 53.2053C69.8099 52.5478 68.2091 50.5947 63.9982 53.0684L56.6291 57.3972C56.2925 57.595 55.9503 57.7395 55.5949 57.8318C55.7188 57.6145 55.8169 57.373 55.8871 57.1086C56.2694 55.67 55.4223 54.1681 53.9587 53.6898C53.929 53.6803 53.8988 53.6722 53.8677 53.6669C51.7531 53.2823 49.6644 52.5207 47.9863 51.9088C47.4022 51.6958 46.8512 51.4947 46.3817 51.3411C44.4801 50.7187 42.7652 51.4871 41.3379 52.3205L35.8901 55.5017L35.3928 54.6154C34.9097 53.7549 33.8226 53.4506 32.969 53.9379L30.9024 55.1185C30.49 55.3538 30.193 55.7384 30.0657 56.201C29.9385 56.6636 29.9974 57.1476 30.2307 57.5632L36.3092 68.396C36.6359 68.9784 37.2392 69.306 37.86 69.306C38.1565 69.306 38.4568 69.2314 38.733 69.0735L40.8005 67.8935C41.6542 67.4062 41.9554 66.3098 41.4722 65.4488L40.8651 64.3662L42.0667 63.6664L51.4887 66.2128C52.0128 66.3545 52.5342 66.4249 53.047 66.4249C54.0846 66.4249 55.0867 66.1367 56.0026 65.5681L69.3757 57.2627C70.6122 56.4948 71.0053 54.5612 70.2002 53.2053ZM40.117 66.6754L38.0495 67.8554C37.8648 67.961 37.6206 67.8925 37.5159 67.7062L31.4379 56.8738C31.387 56.783 31.3743 56.6769 31.4026 56.5742C31.4309 56.4716 31.4959 56.3869 31.5855 56.3356L33.6529 55.1555C33.7119 55.1218 33.7769 55.1061 33.842 55.1061C33.9796 55.1061 34.1154 55.1784 34.1866 55.3048L40.265 66.1377C40.3697 66.3236 40.3018 66.5699 40.117 66.6754ZM68.6484 56.0717L55.2757 64.3767C54.225 65.029 53.0716 65.192 51.8478 64.8611L42.1482 62.2396C41.9705 62.1916 41.781 62.2167 41.6221 62.3095L40.1821 63.1481L36.5741 56.7193L42.0337 53.531C43.2545 52.8178 44.5749 52.2202 45.9542 52.6718C46.4015 52.8183 46.9177 53.0061 47.5149 53.2243C49.2288 53.8495 51.3595 54.6259 53.5712 55.0343C54.3198 55.2996 54.7384 56.0284 54.5475 56.7468C54.2967 57.6915 53.5142 57.8094 52.8905 57.7376C51.8068 57.5128 50.7769 57.2166 49.6866 56.9023C49.169 56.753 48.6335 56.599 48.0829 56.4502C47.7134 56.3503 47.3329 56.5719 47.2335 56.9446C47.1345 57.3178 47.3542 57.7015 47.7237 57.8014C48.2635 57.9473 48.7933 58.0999 49.3057 58.2473C50.4309 58.5716 51.4938 58.8777 52.6393 59.114C52.644 59.115 52.6619 59.1183 52.6671 59.1193L53.5835 59.2695C54.9637 59.492 56.1879 59.2752 57.3272 58.6063L64.6963 54.2774C66.7963 53.0436 68.4094 52.9119 69.0104 53.9246C69.4234 54.6202 69.2405 55.7037 68.6484 56.0717ZM34.2337 57.2128C34.2926 57.6197 34.0136 57.9977 33.6101 58.0571C33.2065 58.1166 32.8318 57.8351 32.7729 57.4281C32.714 57.0212 32.993 56.6432 33.3965 56.5838C33.7995 56.5243 34.1743 56.8063 34.2337 57.2128ZM42.7106 41.8547L44.4839 42.5431C44.7413 43.4983 45.1174 44.4135 45.6063 45.2735L44.8346 47.026C44.7182 47.2904 44.7752 47.5999 44.9779 47.8048L47.4126 50.2604C47.6158 50.4649 47.9222 50.5224 48.1847 50.405L49.9232 49.6262C50.7759 50.1187 51.6833 50.4981 52.6294 50.7577L53.312 52.5468C53.4152 52.8169 53.6721 52.9951 53.9592 52.9951H57.4021C57.6892 52.9951 57.9461 52.8169 58.0494 52.5468L58.7319 50.7582C59.6785 50.4986 60.5863 50.1192 61.4391 49.6262L63.1766 50.4045C63.4391 50.5219 63.7455 50.4644 63.9487 50.2599L66.3834 47.8043C66.5861 47.5999 66.6431 47.2904 66.5267 47.0255L65.7546 45.2726C66.2429 44.4125 66.6191 43.4973 66.8765 42.5431L68.6503 41.8547C68.918 41.7505 69.0948 41.4914 69.0948 41.2019V37.7293C69.0948 37.4397 68.918 37.1806 68.6503 37.0765L66.8769 36.3881C66.6196 35.4334 66.2434 34.5177 65.7546 33.6576L66.5262 31.9052C66.6427 31.6408 66.5856 31.3313 66.3829 31.1264L63.9482 28.6708C63.7455 28.4663 63.4387 28.4083 63.1766 28.5262L61.4386 29.305C60.5859 28.8124 59.6785 28.433 58.7324 28.1734L58.0498 26.3844C57.9466 26.1143 57.6897 25.936 57.4026 25.936H53.9587C53.6716 25.936 53.4147 26.1143 53.3115 26.3844L52.6289 28.1734C51.6829 28.433 50.7755 28.8124 49.9227 29.305L48.1843 28.5262C47.9217 28.4088 47.6153 28.4663 47.4121 28.6708L44.9774 31.1264C44.7748 31.3308 44.7177 31.6403 44.8341 31.9047L45.6058 33.6576C45.1174 34.5177 44.7413 35.4329 44.4834 36.3876L42.7101 37.076C42.4423 37.1802 42.2656 37.4393 42.2656 37.7288V41.2014C42.2661 41.491 42.4428 41.7505 42.7106 41.8547ZM43.6529 38.2095L45.3164 37.5638C45.5299 37.4811 45.6888 37.2971 45.742 37.0732C45.9923 36.0125 46.4076 35.0026 46.9756 34.0717C47.0954 33.8754 47.1119 33.632 47.019 33.4209L46.295 31.7763L48.056 30.0001L49.6866 30.7304C49.8954 30.824 50.1367 30.8079 50.3319 30.6866C51.2553 30.1132 52.2561 29.6949 53.3077 29.4424C53.5302 29.3891 53.7122 29.2284 53.7942 29.0131L54.4343 27.3353H56.9251L57.5652 29.0131C57.6473 29.2284 57.8297 29.3891 58.0517 29.4424C59.1034 29.6949 60.1046 30.1132 61.0276 30.6866C61.2222 30.8074 61.4636 30.824 61.6729 30.7304L63.3034 30.0001L65.0645 31.7763L64.3404 33.4199C64.2476 33.631 64.2636 33.8744 64.3838 34.0708C64.9523 35.0017 65.3676 36.012 65.6179 37.0732C65.6707 37.2976 65.83 37.4811 66.0435 37.5643L67.7066 38.21V40.7222L66.0431 41.3678C65.8295 41.4505 65.6707 41.6345 65.6174 41.8585C65.3671 42.9187 64.9523 43.9285 64.3838 44.8599C64.2641 45.0563 64.2476 45.2997 64.3404 45.5108L65.0645 47.1553L63.3034 48.9316L61.6734 48.2013C61.4645 48.1076 61.2232 48.1238 61.028 48.245C60.1051 48.8184 59.1034 49.2373 58.0512 49.4897C57.8288 49.543 57.6468 49.7037 57.5643 49.9191L56.9242 51.5964H54.4348L53.7947 49.9186C53.7126 49.7032 53.5302 49.5425 53.3082 49.4893C52.2565 49.2368 51.2553 48.8184 50.3324 48.245C50.1377 48.1243 49.8963 48.1076 49.687 48.2013L48.0565 48.9316L46.2954 47.1553L47.0195 45.5113C47.1123 45.3006 47.0963 45.0572 46.9761 44.8604C46.4076 43.9295 45.9928 42.9197 45.742 41.858C45.6892 41.6336 45.5299 41.4501 45.3164 41.3673L43.6533 40.7217L43.6529 38.2095ZM55.6802 46.2211C59.3735 46.2211 62.3785 43.1902 62.3785 39.4651C62.3785 35.7401 59.3735 32.7091 55.6802 32.7091C51.9869 32.7091 48.9818 35.7401 48.9818 39.4651C48.9818 43.1902 51.9864 46.2211 55.6802 46.2211ZM52.2542 43.5544C52.587 41.9326 54.0035 40.7488 55.6802 40.7488C57.3569 40.7488 58.7734 41.9326 59.1062 43.5544C58.1804 44.3445 56.985 44.8224 55.6802 44.8224C54.3754 44.8224 53.1795 44.3445 52.2542 43.5544ZM55.6802 39.3501C54.8935 39.3501 54.2538 38.7044 54.2538 37.9114C54.2538 37.1179 54.8939 36.4727 55.6802 36.4727C56.4669 36.4727 57.1066 37.1183 57.1066 37.9114C57.1066 38.7044 56.4669 39.3501 55.6802 39.3501ZM55.6802 34.1083C58.6089 34.1083 60.9913 36.5112 60.9913 39.4651C60.9913 40.5158 60.6886 41.4962 60.1682 42.3239C59.6954 41.2143 58.8342 40.3252 57.7623 39.8174C58.2162 39.3134 58.4934 38.644 58.4934 37.9109C58.4934 36.3462 57.231 35.073 55.6797 35.073C54.1284 35.073 52.866 36.3462 52.866 37.9109C52.866 38.644 53.1432 39.3134 53.5971 39.8174C52.5252 40.3252 51.664 41.2143 51.1912 42.3239C50.6708 41.4962 50.3682 40.5158 50.3682 39.4651C50.3687 36.5117 52.7515 34.1083 55.6802 34.1083Z" fill="white"/>
</svg>
